<svg width="72.690224mm" height="73.516609mm" viewBox="0 0 72.690224 73.516609" xmlns="http://www.w3.org/2000/svg">
    <path d="m -844.94633,-68.989342 c 0,0 12.8905,1.78477 13.2949,9.7192 0.4044,7.9344 -0.2912,19.11538 -7.0046,19.4211 -6.7133,0.30573 -22.0166,1.31027 -25.4137,1.28117 -3.3972,-0.0291 -4.3678,3.71242 -0.5662,3.79976 3.8015,0.0874 12.2782,0.68426 14.4944,1.23748 2.2162,0.55325 3.9633,5.03727 1.6339,8.99718 -2.3295,3.95994 -8.8326,4.97904 -15.918,4.61508 -7.0855,-0.36396 -16.9857,-0.10192 -17.7622,-9.46306 -0.7764,-9.36115 -0.7926,-19.49392 1.828,-21.44475 2.6207,-1.95085 9.4796,-2.2857 16.1768,-1.92174 6.6972,0.36396 11.8738,1.68881 14.5753,-1.80526 2.7016,-3.49406 4.6614,-14.43616 4.6614,-14.43616 z" fill="#f6d049" paint-order="markers stroke fill" transform="translate(-106.9914,-192.91068) translate(1008.1744,283.47603)"/>
    <path d="m -885.43933,-40.940922 c 0,0 -10.5796,0.53867 -11.712,-3.61053 -1.1324,-4.1492 -0.7927,-18.0235 2.5074,-21.05168 3.3001,-3.02818 3.9471,-3.97449 9.1723,-3.26112 5.2251,0.71337 19.9621,-0.10189 20.7063,-1.48497 0.7441,-1.38306 -0.7603,-2.08188 -3.2839,-2.28569 -2.5236,-0.2038 -15.3195,-1.17924 -15.3195,-1.17924 0,0 -0.2232,-4.71358 4.3678,-10.55495 4.5909,-5.84139 23.9578,-1.7907 27.6461,-0.94631 3.6884,0.84439 5.877,6.70309 5.3501,15.26773 -0.5269,8.56462 -4.6383,17.80932 -11.2222,16.64462 -6.584,-1.16469 -22.2593,-2.31481 -24.2976,1.12101 -2.0383,3.43583 -3.9148,11.34113 -3.9148,11.34113 z" fill="#3573a8" paint-order="markers stroke fill" transform="translate(-106.9914,-192.91068) translate(1008.1744,283.47603)"/>
    <path d="m 2522.7539,3363.9023 a 11.644454,10.994314 0 0 0 -11.6445,10.9942 11.644454,10.994314 0 0 0 11.6445,10.9941 11.644454,10.994314 0 0 0 11.6445,-10.9941 11.644454,10.994314 0 0 0 -11.6445,-10.9942 z m 46.3926,198.9278 a 8.027843,8.9114161 0 0 0 -8.0293,8.9101 8.027843,8.9114161 0 0 0 8.0293,8.9121 8.027843,8.9114161 0 0 0 8.0273,-8.9121 8.027843,8.9114161 0 0 0 -8.0273,-8.9101 z" transform="translate(-106.9914,-192.91068) translate(1008.1744,283.47603) matrix(0.26458333,0,0,0.26458333,-1536.012,-972.91664)" fill="#fff" paint-order="markers stroke fill"/>
    <path d="m -874.41003,-90.210502 c -4.82,1.14931 -10.4461,6.03906 -10.3725,14.52417 0.034,3.9255 2.6332,3.85658 10.3727,3.92271 9.549,0.0815 8.5916,1.03537 7.7193,1.02653 l -4.4142,-0.0447 c -2.1628,-0.0219 -6.3045,-0.13334 -9.9727,-0.25796 -9.3152,-0.3172 -13.8164,-0.77157 -16.8427,4.34161 -3.5404,5.98198 -3.5353,10.8358 -3.011,17.07955 0.4306,5.12861 3.2309,12.5194 12.2403,11.71923 4.0192,-0.35697 3.4473,0.80412 3.2884,2.9384 -0.3437,4.45981 2.3312,11.09946 5.9135,13.77545 2.7452,2.05063 3.7652,3.56266 9.0975,3.79171 8.6534,0.37176 18.7852,1.7582 23.7053,-5.71531 1.6792,-2.55037 2.0318,-4.86556 1.7079,-7.89095 -0.4258,-3.97537 -2.0723,-5.05924 -14.5027,-5.38922 -4.0564,-0.10894 -5.7965,-0.3621 -5.5765,-0.55386 0.2204,-0.19186 4.0732,-0.46206 10.2707,-0.61153 6.1978,-0.14955 11.8199,0.1876 13.6653,0.33751 11.0157,0.89488 16.089,-17.20601 10.0562,-26.56444 -2.4554,-3.80893 -5.3257,-5.49367 -9.6592,-5.93985 l -3.1636,-0.32623 0.2237,-2.64975 c 0.5219,-10.88881 -4.1997,-14.96692 -8.5007,-16.17649 -5.3689,-1.50989 -12.1106,-1.60162 -18.3733,-1.69143 -1.3282,0.0397 -2.7144,0.0869 -3.8717,0.35488 z m 5.3375,5.26169 c 0.9652,-0.006 1.9693,0.0388 2.8867,0.13336 8.089,0.83285 13.7203,1.33507 16.7105,7.28821 1.6521,3.28816 1.0618,10.51663 -1.132,17.41925 -2.2808,7.17556 -3.6604,4.4916 -13.9167,3.9421 -8.4551,-0.45312 -15.7411,0.37593 -18.2627,2.83784 -1.5739,1.53668 -2.7212,5.28131 -2.9362,7.83745 -0.28,2.61219 -1.4637,1.6564 -4.5889,1.52713 -4.4717,-0.18497 -4.9899,-4.25408 -5.0708,-6.35733 -0.1807,-4.69722 0.3181,-12.4411 3.6974,-15.23132 1.736,-1.43342 2.56,-1.51453 11.2106,-1.10491 13.7349,0.65062 22.1653,-2.00495 19.3502,-6.09452 -0.7148,-1.03823 -9.0974,-1.30925 -16.6945,-1.85266 -2.222,-0.15907 -2.2636,-0.005 -2.0197,-2.36868 0.5342,-5.18589 3.5332,-6.57986 6.8464,-7.58509 0.8109,-0.24597 2.311,-0.38379 3.9197,-0.39084 z m -0.4944,0.76529 c -1.3982,-0.005 -2.6783,0.46152 -3.3575,1.49569 -1.1267,1.71615 -1.0808,2.25277 0.3825,4.50036 2.8769,4.41814 10.4155,2.20292 8.7205,-2.56257 -0.7556,-2.12534 -3.4151,-3.42855 -5.7455,-3.43348 z m 0.1379,2.02298 c 0.9983,-0.0172 2.1699,0.81499 2.4486,1.96961 0.3007,1.24513 -1.804,1.40898 -3.1073,0.24209 -0.9827,-0.88018 -1.0286,-1.23429 -0.242,-1.89268 0.2549,-0.2134 0.5679,-0.3135 0.9007,-0.31902 z m 27.6954,16.92762 c 5.6265,1.65996 6.6648,2.1831 7.7352,8.43532 1.0829,6.32843 -1.2789,14.32131 -6.9788,14.79897 -2.1466,0.17988 -5.1398,-0.0615 -9.3764,0.0791 -18.4832,0.6131 -19.4893,-0.15217 -19.6918,5.58866 -0.089,2.51236 1.7133,3.87047 7.324,3.79084 3.6192,-0.0466 8.124,0.12273 11.2888,0.21268 1.2378,0.0922 1.9048,1.0134 1.9257,1.52509 0.065,1.5986 -0.3642,3.51127 -0.7638,4.45207 -1.1913,2.80665 -4.4303,3.8432 -8.0179,4.14157 -2.6209,0.21798 -11.1755,0.36563 -15.061,-1.11233 -5.6617,-2.52423 -7.2385,-8.01111 -7.0458,-18.2294 0.1119,-5.99916 0.2364,-6.53315 1.864,-8.06931 2.2317,-2.10598 8.6948,-2.46791 16.6657,-1.20845 12.3022,1.43898 16.5045,-3.21705 17.2752,-11.7745 0.428,-3.83276 -0.6846,-3.67515 2.8569,-2.63031 z m -14.6618,33.59244 c -0.9775,0.0487 -1.9135,0.40231 -2.5718,1.12021 -1.7514,2.04574 -1.1647,3.50646 -0.066,4.85536 1.2458,1.11628 3.4028,0.88775 4.8985,0.12919 1.3028,-0.90115 2.3911,-2.18265 2.0619,-3.55557 -0.1907,-0.84264 -0.4357,-1.1981 -1.5007,-1.84347 -0.8243,-0.49937 -1.8436,-0.75462 -2.8212,-0.70573 z m 0.053,2.57484 c 0.3648,0.0379 0.7473,0.4173 0.8505,0.84327 0.1035,0.42606 -0.337,0.72041 -0.9767,0.65449 -0.639,-0.0658 -1.0221,-0.44457 -0.8493,-0.84221 0.1714,-0.39756 0.611,-0.69305 0.9755,-0.65555 z" transform="translate(-106.9914,-192.91068) translate(1008.1744,283.47603)"/>
</svg>
